<svg width="52" height="52" viewBox="0 0 32 32" fill="none" xmlns="http://www.w3.org/2000/svg">
<rect width="32" height="32" rx="6" fill="#3C4043"/>
<path d="M26.727 5.21346C26.5112 5.21346 26.3003 5.27672 26.1209 5.39524C25.9415 5.51377 25.8017 5.68223 25.7191 5.87933C25.6365 6.07642 25.6149 6.2933 25.657 6.50254C25.6991 6.71178 25.803 6.90398 25.9556 7.05483C26.1081 7.20568 26.3025 7.30841 26.5141 7.35003C26.7258 7.39165 26.9451 7.37029 27.1444 7.28865C27.3438 7.20701 27.5141 7.06876 27.634 6.89137C27.7539 6.71399 27.8179 6.50544 27.8179 6.29211C27.8179 6.00603 27.7029 5.73167 27.4984 5.52939C27.2938 5.3271 27.0163 5.21346 26.727 5.21346ZM26.727 7.01121C26.5831 7.01121 26.4425 6.96903 26.3229 6.89002C26.2033 6.811 26.1101 6.69869 26.055 6.5673C26 6.4359 25.9856 6.29131 26.0137 6.15182C26.0417 6.01233 26.111 5.88419 26.2127 5.78363C26.3144 5.68306 26.444 5.61457 26.5851 5.58682C26.7262 5.55908 26.8724 5.57332 27.0053 5.62774C27.1382 5.68217 27.2518 5.77434 27.3317 5.8926C27.4116 6.01085 27.4542 6.14988 27.4542 6.29211C27.4542 6.48282 27.3776 6.66573 27.2412 6.80059C27.1048 6.93545 26.9198 7.01121 26.727 7.01121ZM22.727 9.5411V6.47188C22.727 6.4242 22.7078 6.37848 22.6737 6.34476C22.6396 6.31105 22.5934 6.29211 22.5451 6.29211C22.4969 6.29211 22.4507 6.31105 22.4166 6.34476C22.3825 6.37848 22.3633 6.4242 22.3633 6.47188V9.5411C22.0449 9.58655 21.7556 9.74958 21.5538 9.99739C21.352 10.2452 21.2526 10.5594 21.2757 10.8767C21.2987 11.1941 21.4425 11.491 21.678 11.7078C21.9135 11.9245 22.2234 12.045 22.5451 12.045C22.8669 12.045 23.1767 11.9245 23.4123 11.7078C23.6478 11.491 23.7916 11.1941 23.8146 10.8767C23.8376 10.5594 23.7383 10.2452 23.5365 9.99739C23.3347 9.74958 23.0454 9.58655 22.727 9.5411ZM22.5451 11.6854C22.3653 11.6854 22.1896 11.6326 22.0401 11.5339C21.8906 11.4351 21.7741 11.2947 21.7053 11.1305C21.6364 10.9662 21.6184 10.7855 21.6535 10.6111C21.6886 10.4368 21.7752 10.2766 21.9023 10.1509C22.0295 10.0252 22.1914 9.93957 22.3678 9.90488C22.5441 9.8702 22.7269 9.888 22.893 9.95604C23.0592 10.0241 23.2011 10.1393 23.301 10.2871C23.4009 10.4349 23.4542 10.6087 23.4542 10.7865C23.4542 11.0249 23.3585 11.2535 23.188 11.4221C23.0175 11.5907 22.7862 11.6854 22.5451 11.6854ZM24.1815 8.62919V4.67413C24.1815 4.24502 24.0091 3.83348 23.7022 3.53005C23.3953 3.22662 22.9791 3.05615 22.5451 3.05615C22.1112 3.05615 21.6949 3.22662 21.3881 3.53005C21.0812 3.83348 20.9088 4.24502 20.9088 4.67413V8.62919C20.4509 8.96877 20.1126 9.44221 19.9419 9.98244C19.7713 10.5227 19.7768 11.1023 19.9578 11.6392C20.1388 12.1762 20.4861 12.6432 20.9505 12.9741C21.4148 13.305 21.9727 13.4831 22.5451 13.4831C23.1176 13.4831 23.6754 13.305 24.1398 12.9741C24.6042 12.6432 24.9515 12.1762 25.1325 11.6392C25.3135 11.1023 25.319 10.5227 25.1484 9.98244C24.9777 9.44221 24.6394 8.96877 24.1815 8.62919ZM22.5451 13.1236C22.0419 13.1236 21.5517 12.9648 21.1461 12.6703C20.7404 12.3758 20.4404 11.961 20.2897 11.4862C20.1391 11.0114 20.1456 10.5015 20.3083 10.0306C20.4711 9.55976 20.7816 9.15255 21.1947 8.86829C21.2189 8.85154 21.2387 8.8292 21.2522 8.8032C21.2658 8.7772 21.2727 8.74832 21.2724 8.71907V4.67413C21.2724 4.34037 21.4065 4.02029 21.6452 3.78429C21.8839 3.54829 22.2076 3.4157 22.5451 3.4157C22.8827 3.4157 23.2064 3.54829 23.4451 3.78429C23.6838 4.02029 23.8179 4.34037 23.8179 4.67413V8.71907C23.8179 8.74802 23.8249 8.77653 23.8385 8.8022C23.852 8.82786 23.8716 8.84992 23.8956 8.86649C24.3095 9.15048 24.6207 9.55779 24.784 10.029C24.9473 10.5002 24.954 11.0107 24.8033 11.4859C24.6525 11.9612 24.3521 12.3764 23.9459 12.671C23.5397 12.9656 23.0489 13.1242 22.5451 13.1236Z" fill="#E3E2E2"/>
<path d="M13.0329 21.9983C13.0665 21.9351 13.0871 21.866 13.0934 21.7949C13.0998 21.7238 13.0918 21.6522 13.07 21.5842C13.0482 21.5162 13.0129 21.4532 12.9663 21.3987C12.9197 21.3443 12.8626 21.2995 12.7983 21.2671C12.734 21.2346 12.6639 21.2151 12.592 21.2096C12.52 21.2041 12.4477 21.2128 12.3792 21.2352C12.3106 21.2575 12.2473 21.2931 12.1928 21.3398C12.1382 21.3866 12.0936 21.4436 12.0616 21.5075C11.7738 22.057 11.3389 22.5178 10.8043 22.8396L10.1906 21.4738C10.47 21.2433 10.6805 20.942 10.7995 20.6021C10.9185 20.2621 10.9415 19.8966 10.866 19.5447C10.7904 19.1929 10.6193 18.868 10.371 18.6052C10.1226 18.3424 9.80646 18.1515 9.45655 18.0531V17.4383C9.45655 17.2952 9.39908 17.158 9.29679 17.0569C9.1945 16.9557 9.05576 16.8989 8.9111 16.8989C8.76643 16.8989 8.62769 16.9557 8.5254 17.0569C8.42311 17.158 8.36564 17.2952 8.36564 17.4383V18.0531C8.01573 18.1515 7.69958 18.3424 7.45124 18.6052C7.20289 18.868 7.03175 19.1929 6.95624 19.5447C6.88073 19.8966 6.9037 20.2621 7.0227 20.6021C7.14169 20.942 7.3522 21.2433 7.63155 21.4738L5.50201 26.2077C5.47268 26.2726 5.45663 26.3426 5.45477 26.4137C5.45292 26.4848 5.46529 26.5555 5.49119 26.6218C5.51708 26.6882 5.55599 26.7488 5.60566 26.8002C5.65534 26.8516 5.71481 26.8928 5.78064 26.9214C5.85039 26.9517 5.92583 26.967 6.00201 26.9663C6.1078 26.9666 6.21139 26.9365 6.30017 26.8796C6.38894 26.8227 6.45907 26.7415 6.50201 26.6459L7.57791 24.2522C8.00985 24.3834 8.45923 24.4499 8.9111 24.4495C9.36356 24.4491 9.81356 24.3837 10.247 24.2553L11.3202 26.6459C11.3631 26.7415 11.4332 26.8227 11.522 26.8796C11.6108 26.9365 11.7144 26.9666 11.8202 26.9663C11.8962 26.9669 11.9715 26.9516 12.0411 26.9214C12.107 26.8928 12.1665 26.8517 12.2162 26.8003C12.2659 26.7489 12.3049 26.6883 12.3308 26.622C12.3568 26.5556 12.3692 26.4849 12.3674 26.4138C12.3655 26.3427 12.3495 26.2726 12.3202 26.2077L11.2516 23.8302C12.0122 23.4029 12.631 22.7665 13.0329 21.9983ZM8.9111 19.0562C9.0909 19.0562 9.26666 19.1089 9.41616 19.2077C9.56566 19.3065 9.68218 19.4469 9.75099 19.6111C9.81979 19.7754 9.8378 19.9561 9.80272 20.1305C9.76764 20.3048 9.68106 20.465 9.55392 20.5907C9.42678 20.7164 9.2648 20.802 9.08845 20.8367C8.9121 20.8714 8.72932 20.8536 8.5632 20.7856C8.39709 20.7175 8.25511 20.6023 8.15521 20.4545C8.05532 20.3067 8.00201 20.1329 8.00201 19.9551C8.00201 19.7167 8.09778 19.4881 8.26827 19.3195C8.43876 19.1509 8.66999 19.0562 8.9111 19.0562ZM8.9111 23.3708C8.6116 23.3712 8.31333 23.333 8.02382 23.2571L8.62837 21.9124C8.81587 21.9394 9.00632 21.9394 9.19382 21.9124L9.79973 23.2607C9.50932 23.3339 9.21079 23.3709 8.9111 23.3708Z" fill="#E3E2E2"/>
<path d="M27.5972 22.631L26.1427 19.0355C26.0945 18.9169 26.0054 18.819 25.8911 18.7593C25.7768 18.6997 25.6448 18.6821 25.5186 18.7097L22.909 19.2809V18.5169C22.909 18.3738 22.8515 18.2366 22.7493 18.1355C22.647 18.0344 22.5082 17.9775 22.3636 17.9775C22.2189 17.9775 22.0802 18.0344 21.9779 18.1355C21.8756 18.2366 21.8181 18.3738 21.8181 18.5169V19.5223L18.9727 20.1479C18.886 20.1669 18.8054 20.2065 18.7377 20.2633C18.6701 20.32 18.6175 20.3923 18.5845 20.4737L17.1299 24.0656C17.1036 24.1305 17.0904 24.1998 17.0908 24.2697C17.0908 24.8148 17.3727 25.2778 17.884 25.573C18.2529 25.7771 18.6681 25.8853 19.0908 25.8877C19.5135 25.8853 19.9287 25.7771 20.2977 25.573C20.809 25.2778 21.0908 24.8148 21.0908 24.2697C21.0908 24.201 21.0776 24.133 21.0517 24.0692L19.8354 21.0629L21.8181 20.6292V25.8877H21.2727C21.128 25.8877 20.9892 25.9445 20.887 26.0456C20.7847 26.1468 20.7272 26.2839 20.7272 26.427C20.7272 26.57 20.7847 26.7072 20.887 26.8083C20.9892 26.9095 21.128 26.9663 21.2727 26.9663H23.4545C23.5991 26.9663 23.7379 26.9095 23.8402 26.8083C23.9425 26.7072 23.9999 26.57 23.9999 26.427C23.9999 26.2839 23.9425 26.1468 23.8402 26.0456C23.7379 25.9445 23.5991 25.8877 23.4545 25.8877H22.909V20.3879L24.7463 19.9834L23.6754 22.6306C23.6495 22.6945 23.6362 22.7627 23.6363 22.8315C23.6363 23.3766 23.9181 23.8396 24.4295 24.1348C24.7974 24.3414 25.2132 24.4499 25.6363 24.4499C26.0594 24.4499 26.4752 24.3414 26.8431 24.1348C27.3545 23.8396 27.6363 23.3766 27.6363 22.8315C27.6363 22.7628 27.623 22.6948 27.5972 22.631ZM19.0908 24.809C18.9222 24.809 18.2727 24.725 18.1904 24.3515L19.0908 22.1263L19.9913 24.3515C19.909 24.725 19.2595 24.809 19.0908 24.809ZM25.6363 23.3708C25.4677 23.3708 24.8181 23.2868 24.7358 22.9133L25.6363 20.6881L26.5367 22.9133C26.4545 23.2868 25.8049 23.3708 25.6363 23.3708Z" fill="#E3E2E2"/>
<path d="M13.2948 5.95463L6.74932 12.4265C6.64685 12.5279 6.50787 12.5848 6.36296 12.5848C6.21805 12.5848 6.07907 12.5279 5.9766 12.4265C5.87413 12.3252 5.81656 12.1878 5.81656 12.0445C5.81656 11.9012 5.87413 11.7638 5.9766 11.6625L12.5221 5.19058C12.6245 5.08927 12.7635 5.03234 12.9084 5.03234C13.0533 5.03234 13.1923 5.08927 13.2948 5.19058C13.3972 5.2919 13.4548 5.42932 13.4548 5.57261C13.4548 5.71589 13.3972 5.85331 13.2948 5.95463ZM6.54523 8.08991C6.54523 8.23295 6.6027 8.37013 6.70499 8.47127C6.80729 8.57241 6.94602 8.62924 7.09069 8.62924C7.23535 8.62924 7.37409 8.57241 7.47638 8.47127C7.57867 8.37013 7.63614 8.23295 7.63614 8.08991V6.83148H8.90887C9.05353 6.83148 9.19227 6.77466 9.29456 6.67352C9.39686 6.57237 9.45432 6.43519 9.45432 6.29216C9.45432 6.14912 9.39686 6.01194 9.29456 5.9108C9.19227 5.80965 9.05353 5.75283 8.90887 5.75283H7.63614V4.4944C7.63614 4.35137 7.57867 4.21419 7.47638 4.11304C7.37409 4.0119 7.23535 3.95508 7.09069 3.95508C6.94602 3.95508 6.80729 4.0119 6.70499 4.11304C6.6027 4.21419 6.54523 4.35137 6.54523 4.4944V5.75283H5.27251C5.12784 5.75283 4.9891 5.80965 4.88681 5.9108C4.78452 6.01194 4.72705 6.14912 4.72705 6.29216C4.72705 6.43519 4.78452 6.57237 4.88681 6.67352C4.9891 6.77466 5.12784 6.83148 5.27251 6.83148H6.54523V8.08991ZM13.9998 10.7865H10.3634C10.2188 10.7865 10.08 10.8434 9.97772 10.9445C9.87543 11.0456 9.81796 11.1828 9.81796 11.3259C9.81796 11.4689 9.87543 11.6061 9.97772 11.7072C10.08 11.8084 10.2188 11.8652 10.3634 11.8652H13.9998C14.1444 11.8652 14.2832 11.8084 14.3855 11.7072C14.4878 11.6061 14.5452 11.4689 14.5452 11.3259C14.5452 11.1828 14.4878 11.0456 14.3855 10.9445C14.2832 10.8434 14.1444 10.7865 13.9998 10.7865Z" fill="#E3E2E2"/>
</svg>
